<?xml version="1.0" encoding="utf-8"?>
<!-- Generator: Adobe Illustrator 16.0.0, SVG Export Plug-In . SVG Version: 6.00 Build 0)  -->
<!DOCTYPE svg PUBLIC "-//W3C//DTD SVG 1.1//EN" "http://www.w3.org/Graphics/SVG/1.1/DTD/svg11.dtd">
<svg version="1.1" id="Layer_1" xmlns="http://www.w3.org/2000/svg" xmlns:xlink="http://www.w3.org/1999/xlink" x="0px" y="0px"
	 width="31px" height="29px" viewBox="0 0 31 29" enable-background="new 0 0 31 29" xml:space="preserve">
<g>
	<path fill-rule="evenodd" clip-rule="evenodd" fill="#987D8C" d="M7.15,6.25C4.65,8.217,3.3,10.733,3.1,13.8
		c-0.167,3.066,0.867,5.733,3.1,8c2.333,2.334,5.2,3.617,8.6,3.851c3.434,0.199,6.434-0.733,9-2.801
		c2.533-1.966,3.884-4.483,4.05-7.55c0.2-3.066-0.833-5.733-3.1-8V7.25c-2.3-2.333-5.167-3.6-8.6-3.8
		C12.75,3.217,9.75,4.15,7.15,6.25z M3.3,23.1c-2.333-2.767-3.4-5.933-3.2-9.5c0.267-3.934,1.983-7.167,5.15-9.7
		C8.417,1.333,12.1,0.184,16.3,0.45c4.233,0.233,7.75,1.816,10.55,4.75c2.934,2.9,4.267,6.316,4,10.25
		c-0.233,3.934-1.967,7.2-5.199,9.8V25.2c-3.134,2.5-6.817,3.633-11.05,3.399c-2.2-0.133-4.184-0.633-5.95-1.5
		C7.75,27.8,6.533,28.167,5,28.2c-0.9-0.033-1.617-0.066-2.15-0.101c-1.567-0.233-1.9-0.683-1-1.35
		C3.816,25.384,4.3,24.167,3.3,23.1z"/>
</g>
</svg>
