<svg width="26" height="23" viewBox="0 0 26 23" fill="none" xmlns="http://www.w3.org/2000/svg">
<path d="M24.0428 2.08949H18.8171V1.04671C18.8176 0.909109 18.7909 0.772767 18.7385 0.645541C18.6861 0.518316 18.609 0.402722 18.5117 0.305424C18.4144 0.208125 18.2988 0.131045 18.1716 0.0786272C18.0443 0.0262091 17.908 -0.000510876 17.7704 7.39737e-06H7.31907C7.18147 -0.000510876 7.04513 0.0262091 6.9179 0.0786272C6.79068 0.131045 6.67508 0.208125 6.57779 0.305424C6.48049 0.402722 6.40341 0.518316 6.35099 0.645541C6.29857 0.772767 6.27185 0.909109 6.27237 1.04671V2.08949H1.0467C0.769099 2.08949 0.502866 2.19977 0.306572 2.39606C0.110277 2.59236 0 2.85859 0 3.13619C0 3.41379 0.110277 3.68003 0.306572 3.87632C0.502866 4.07262 0.769099 4.18289 1.0467 4.18289H3.13618V19.8638C3.13618 20.6956 3.4666 21.4933 4.05475 22.0814C4.6429 22.6696 5.4406 23 6.27237 23H18.8171C19.6489 23 20.4466 22.6696 21.0347 22.0814C21.6229 21.4933 21.9533 20.6956 21.9533 19.8638V4.18289H24.0428C24.3204 4.18289 24.5866 4.07262 24.7829 3.87632C24.9792 3.68003 25.0895 3.41379 25.0895 3.13619C25.0895 2.85859 24.9792 2.59236 24.7829 2.39606C24.5866 2.19977 24.3204 2.08949 24.0428 2.08949V2.08949ZM19.8638 19.8638C19.8628 20.1407 19.752 20.406 19.5559 20.6014C19.3597 20.7969 19.094 20.9066 18.8171 20.9066H6.27237C5.99544 20.9066 5.7298 20.7969 5.53362 20.6014C5.33744 20.406 5.2267 20.1407 5.22567 19.8638V4.18289H19.8638V19.8638Z" fill="#A8939E"/>
<path d="M9.40852 17.7702C9.68544 17.7702 9.95108 17.6605 10.1473 17.465C10.3434 17.2696 10.4542 17.0043 10.4552 16.7274V8.36164C10.4552 8.08404 10.3449 7.81781 10.1486 7.62151C9.95235 7.42522 9.68612 7.31494 9.40852 7.31494C9.13092 7.31494 8.86468 7.42522 8.66839 7.62151C8.47209 7.81781 8.36182 8.08404 8.36182 8.36164V16.7274C8.36285 17.0043 8.47359 17.2696 8.66977 17.465C8.86595 17.6605 9.13159 17.7702 9.40852 17.7702Z" fill="#A8939E"/>
<path d="M15.681 17.7702C15.9579 17.7702 16.2235 17.6605 16.4197 17.465C16.6159 17.2696 16.7266 17.0043 16.7277 16.7274V8.36164C16.7277 8.08404 16.6174 7.81781 16.4211 7.62151C16.2248 7.42522 15.9586 7.31494 15.681 7.31494C15.4034 7.31494 15.1371 7.42522 14.9408 7.62151C14.7446 7.81781 14.6343 8.08404 14.6343 8.36164V16.7274C14.6353 17.0043 14.746 17.2696 14.9422 17.465C15.1384 17.6605 15.4041 17.7702 15.681 17.7702V17.7702Z" fill="#A8939E"/>
</svg>
