<svg width="41" height="41" viewBox="0 0 41 41" fill="none" xmlns="http://www.w3.org/2000/svg">
<path fill-rule="evenodd" clip-rule="evenodd" d="M40.9168 10.2918C40.9168 4.65479 36.3455 0.0834961 30.7085 0.0834961C24.4732 0.0834961 16.5271 0.0834961 10.2918 0.0834961C4.65479 0.0834961 0.0834961 4.65479 0.0834961 10.2918C0.0834961 16.5271 0.0834961 24.4732 0.0834961 30.7085C0.0834961 36.3455 4.65479 40.9168 10.2918 40.9168C16.5271 40.9168 24.4732 40.9168 30.7085 40.9168C36.3455 40.9168 40.9168 36.3455 40.9168 30.7085C40.9168 24.4732 40.9168 16.5271 40.9168 10.2918Z" fill="url(#paint0_radial_0_1)"/>
<path d="M26.5394 6.21873C30.8086 6.25956 34.7388 9.92435 34.7816 14.4609C34.7959 18.4871 34.7959 22.5133 34.7816 26.5394C34.7408 30.7922 31.076 34.7388 26.5394 34.7816C22.5133 34.7959 18.4871 34.7959 14.4609 34.7816C10.1898 34.7408 6.2616 31.076 6.21873 26.5394C6.20443 22.5133 6.20443 18.4871 6.21873 14.4609C6.25752 10.1877 9.91414 6.2616 14.4609 6.21873C18.4871 6.20443 22.5133 6.20443 26.5394 6.21873ZM14.5161 8.1481C11.2024 8.15831 8.18077 11.0309 8.1481 14.4732C8.13585 18.4912 8.13585 22.5092 8.1481 26.5272C8.17873 29.8041 10.9819 32.8196 14.4732 32.8523C18.4912 32.8645 22.5092 32.8645 26.5272 32.8523C29.8122 32.8216 32.8196 30.0184 32.8523 26.5272C32.8645 22.5092 32.8645 18.4912 32.8523 14.4732C32.8216 11.1739 29.9633 8.18077 26.5272 8.1481C22.5235 8.13585 18.5198 8.1481 14.5161 8.1481Z" fill="white"/>
<path d="M20.5491 13.354C23.8526 13.3846 26.9314 15.9326 27.5357 19.1973C27.9665 21.5248 27.1539 24.0483 25.4389 25.6857C23.53 27.5028 20.5757 28.152 18.044 27.2251C15.2143 26.19 13.2236 23.2071 13.3564 20.1854C13.5176 16.5758 16.7067 13.3663 20.5001 13.354C20.5165 13.354 20.5328 13.354 20.5491 13.354ZM20.4675 15.2875C18.1094 15.3099 15.886 17.0984 15.396 19.4218C14.8999 21.7718 16.2514 24.379 18.4707 25.3161C20.8942 26.341 24.0241 25.1916 25.1939 22.7988C26.4046 20.3263 25.2634 16.9678 22.7072 15.7734C22.011 15.4488 21.2372 15.2854 20.4675 15.2875Z" fill="white"/>
<path fill-rule="evenodd" clip-rule="evenodd" d="M29.6875 12.7968C29.6875 12.4028 29.5303 12.025 29.2526 11.7474C28.975 11.4697 28.5972 11.3125 28.2032 11.3125C28.1726 11.3125 28.1399 11.3125 28.1093 11.3125C27.7153 11.3125 27.3375 11.4697 27.0599 11.7474C26.7822 12.025 26.625 12.4028 26.625 12.7968C26.625 12.8131 26.625 12.8274 26.625 12.8438C26.625 13.25 26.7863 13.64 27.0742 13.9258C27.36 14.2137 27.75 14.375 28.1562 14.375C29.0015 14.375 29.6875 13.689 29.6875 12.8438C29.6875 12.8274 29.6875 12.8131 29.6875 12.7968Z" fill="white"/>
<defs>
<radialGradient id="paint0_radial_0_1" cx="0" cy="0" r="1" gradientUnits="userSpaceOnUse" gradientTransform="translate(0.0834961 39.896) scale(57.0299)">
<stop stop-color="#FF8100"/>
<stop offset="0.19" stop-color="#FF7209"/>
<stop offset="0.32" stop-color="#F55E16"/>
<stop offset="0.48" stop-color="#D92938"/>
<stop offset="1" stop-color="#9100FF"/>
</radialGradient>
</defs>
</svg>
