<?xml version="1.0" encoding="utf-8"?>
<!-- Generator: Adobe Illustrator 16.0.0, SVG Export Plug-In . SVG Version: 6.00 Build 0)  -->
<!DOCTYPE svg PUBLIC "-//W3C//DTD SVG 1.1//EN" "http://www.w3.org/Graphics/SVG/1.1/DTD/svg11.dtd">
<svg version="1.1" id="Layer_1" xmlns="http://www.w3.org/2000/svg" xmlns:xlink="http://www.w3.org/1999/xlink" x="0px" y="0px"
	 width="30px" height="28px" viewBox="0 0 30 28" enable-background="new 0 0 30 28" xml:space="preserve">
<g>
	<g>
		<path fill-rule="evenodd" clip-rule="evenodd" fill="#987D8C" d="M28.7,4.55c1.2,2.1,1.583,4.367,1.149,6.8
			c-0.633,4.9-5.233,10.233-13.8,16c-0.166,0.101-0.35,0.217-0.55,0.351L15,28l-0.5-0.3c-0.2-0.134-0.383-0.25-0.55-0.351
			c-8.567-5.767-13.167-11.1-13.8-16c-0.433-2.434-0.05-4.7,1.15-6.8c1.233-2.066,3-3.433,5.3-4.1c2-0.6,3.833-0.567,5.5,0.1
			c0.7,0.233,1.316,0.567,1.85,1c0.4,0.3,0.75,0.633,1.05,1c0.3-0.367,0.65-0.7,1.05-1c0.533-0.433,1.15-0.767,1.851-1
			c1.666-0.667,3.5-0.7,5.5-0.1C25.7,1.117,27.467,2.483,28.7,4.55z M22.45,3.3c-1.667-0.5-3.233-0.3-4.7,0.6
			c-0.634,0.367-1.2,0.833-1.7,1.4C15.684,5.7,15.333,6.15,15,6.65c-0.333-0.5-0.683-0.95-1.05-1.35c-0.5-0.566-1.067-1.033-1.7-1.4
			C10.783,3,9.217,2.8,7.55,3.3C4.35,4.233,2.9,6.683,3.2,10.65c0.267,3.7,3.85,8.067,10.75,13.1c0.333,0.233,0.683,0.483,1.05,0.75
			c0.366-0.267,0.717-0.517,1.05-0.75c6.9-5.033,10.483-9.4,10.75-13.1C27.1,6.683,25.65,4.233,22.45,3.3z"/>
		<path fill-rule="evenodd" clip-rule="evenodd" fill="#FFFFFF" d="M22.45,3.3c3.2,0.934,4.649,3.383,4.35,7.35
			c-0.267,3.7-3.85,8.067-10.75,13.1c-0.333,0.233-0.684,0.483-1.05,0.75c-0.367-0.267-0.717-0.517-1.05-0.75
			c-6.9-5.033-10.483-9.4-10.75-13.1C2.9,6.683,4.35,4.233,7.55,3.3c1.667-0.5,3.233-0.3,4.7,0.6c0.633,0.367,1.2,0.833,1.7,1.4
			c0.367,0.4,0.716,0.85,1.05,1.35c0.333-0.5,0.684-0.95,1.05-1.35c0.5-0.566,1.066-1.033,1.7-1.4C19.217,3,20.783,2.8,22.45,3.3z"
			/>
	</g>
</g>
</svg>
