<?xml version="1.0" encoding="utf-8"?>
<!-- Generator: Adobe Illustrator 16.0.0, SVG Export Plug-In . SVG Version: 6.00 Build 0)  -->
<!DOCTYPE svg PUBLIC "-//W3C//DTD SVG 1.1//EN" "http://www.w3.org/Graphics/SVG/1.1/DTD/svg11.dtd">
<svg version="1.1" id="Layer_1" xmlns="http://www.w3.org/2000/svg" xmlns:xlink="http://www.w3.org/1999/xlink" x="0px" y="0px"
	 width="31px" height="29px" viewBox="0 0 31 29" enable-background="new 0 0 31 29" xml:space="preserve">
<g>
	<path fill-rule="evenodd" clip-rule="evenodd" fill="#987D8C" d="M5.95,21.7v4.25H25.8V21.7H5.95z M25.8,18.7v-1.05
		c0-0.4,0.15-0.75,0.45-1.051c0.3-0.3,0.65-0.449,1.05-0.449c0.4,0,0.75,0.149,1.05,0.449c0.301,0.301,0.45,0.65,0.45,1.051v9.8
		c0,0.399-0.149,0.75-0.45,1.05c-0.3,0.3-0.649,0.45-1.05,0.45H4.45c-0.4,0-0.75-0.15-1.05-0.45c-0.3-0.3-0.45-0.65-0.45-1.05v-9.8
		c0-0.4,0.15-0.75,0.45-1.051c0.3-0.3,0.65-0.449,1.05-0.449c0.4,0,0.75,0.149,1.05,0.449c0.3,0.301,0.45,0.65,0.45,1.051v1.05H25.8
		z M21.1,8.45c0.4,0,0.733,0.15,1,0.45c0.301,0.267,0.45,0.6,0.45,1v0.45h4L22.3,3.1H8.7l-4.2,7.25h4V9.9c0-0.4,0.133-0.733,0.4-1
		c0.3-0.3,0.633-0.45,1-0.45s0.7,0.15,1,0.45c0.3,0.267,0.45,0.6,0.45,1v0.45h2.75V9.9c0-0.4,0.133-0.733,0.4-1
		c0.3-0.3,0.634-0.45,1-0.45c0.4,0,0.733,0.15,1,0.45c0.3,0.267,0.45,0.6,0.45,1v0.45h2.75V9.9c0-0.4,0.133-0.733,0.399-1
		C20.4,8.6,20.733,8.45,21.1,8.45z M23.9,0.3c0.233,0.133,0.416,0.317,0.55,0.55l6,10.25c0.166,0.3,0.233,0.633,0.2,1
		c-0.067,0.367-0.233,0.667-0.5,0.9c-0.301,0.233-0.634,0.35-1,0.35H1.85c-0.367,0-0.684-0.117-0.95-0.35
		c-0.3-0.233-0.467-0.533-0.5-0.9c-0.066-0.367-0.017-0.7,0.15-1l6-10.25C6.683,0.617,6.867,0.433,7.1,0.3s0.483-0.2,0.75-0.2h15.3
		C23.417,0.1,23.667,0.167,23.9,0.3z"/>
</g>
</svg>
