<?xml version="1.0" encoding="utf-8"?>
<!-- Generator: Adobe Illustrator 16.0.0, SVG Export Plug-In . SVG Version: 6.00 Build 0)  -->
<!DOCTYPE svg PUBLIC "-//W3C//DTD SVG 1.1//EN" "http://www.w3.org/Graphics/SVG/1.1/DTD/svg11.dtd">
<svg version="1.1" id="Layer_1" xmlns="http://www.w3.org/2000/svg" xmlns:xlink="http://www.w3.org/1999/xlink" x="0px" y="0px"
	 width="29px" height="29px" viewBox="0 0 29 29" enable-background="new 0 0 29 29" xml:space="preserve">
<g>
	<g>
		<path fill-rule="evenodd" clip-rule="evenodd" fill="#987D8C" d="M14.45,0.1c0.866,0,1.583,0.3,2.149,0.9
			c0.601,0.567,0.917,1.25,0.95,2.05c5.634,1.434,8.184,6.467,7.65,15.101v0.05c-0.067,2.233,0.533,3.717,1.8,4.45h0.5
			c0.4,0,0.75,0.149,1.05,0.449c0.3,0.301,0.45,0.634,0.45,1c0,0.4-0.15,0.75-0.45,1.051c-0.3,0.3-0.649,0.449-1.05,0.449h-8.8
			c-0.033,0-0.067,0-0.101,0c-0.199,0.733-0.583,1.4-1.149,2c-0.834,0.801-1.834,1.2-3,1.2c-1.134,0-2.15-0.399-3.05-1.2
			c-0.533-0.6-0.883-1.267-1.05-2c-0.034,0-0.067,0-0.1,0h-8.8c-0.4,0-0.75-0.149-1.05-0.449C0.133,24.85,0,24.5,0,24.1
			c0-0.366,0.133-0.699,0.4-1c0.3-0.3,0.65-0.449,1.05-0.449h0.5c1.267-0.733,1.866-2.217,1.8-4.45v-0.05
			c-0.533-8.601,2-13.617,7.6-15.05c0.033-0.833,0.333-1.533,0.9-2.1C12.883,0.4,13.617,0.1,14.45,0.1z M15.7,5.7
			c-0.134-0.034-0.283-0.067-0.45-0.1H13.7c-0.134,0.033-0.267,0.066-0.4,0.1c-4.866,0.9-7.066,5-6.6,12.3v0.05
			c0.066,1.867-0.184,3.4-0.75,4.601h17.1c-0.566-1.2-0.816-2.733-0.75-4.601V18C22.733,10.7,20.533,6.6,15.7,5.7z"/>
		<path fill-rule="evenodd" clip-rule="evenodd" fill="#FFFFFF" d="M15.7,5.7c4.833,0.9,7.033,5,6.6,12.3v0.05
			c-0.066,1.867,0.184,3.4,0.75,4.601H5.95c0.566-1.2,0.816-2.733,0.75-4.601V18C6.233,10.7,8.434,6.6,13.3,5.7
			c0.134-0.034,0.267-0.067,0.4-0.1h1.55C15.417,5.633,15.566,5.667,15.7,5.7z"/>
	</g>
</g>
</svg>
