<svg width="44" height="44" viewBox="0 0 44 44" fill="none" xmlns="http://www.w3.org/2000/svg">
<path d="M21.9999 0.666504C10.2279 0.666504 0.684082 10.2104 0.684082 21.9823C0.684082 31.0174 6.29812 38.7367 14.2279 41.842C14.035 40.1578 13.8771 37.5613 14.2981 35.7192C14.6841 34.0525 16.7894 25.1227 16.7894 25.1227C16.7894 25.1227 16.1578 23.842 16.1578 21.9648C16.1578 18.9998 17.8771 16.7893 20.0174 16.7893C21.842 16.7893 22.7192 18.1577 22.7192 19.7893C22.7192 21.6139 21.5613 24.3507 20.9473 26.8946C20.4385 29.0174 22.0174 30.7542 24.1051 30.7542C27.8946 30.7542 30.8069 26.7542 30.8069 20.9998C30.8069 15.8946 27.1402 12.3332 21.8946 12.3332C15.8244 12.3332 12.263 16.877 12.263 21.5788C12.263 23.4034 12.9648 25.3683 13.842 26.4384C14.0174 26.649 14.035 26.842 13.9823 27.0525C13.8244 27.7192 13.456 29.1753 13.3858 29.4735C13.2981 29.8595 13.0701 29.9472 12.6665 29.7542C9.99988 28.5086 8.33321 24.6314 8.33321 21.4911C8.33321 14.7718 13.2104 8.59633 22.4209 8.59633C29.8069 8.59633 35.5613 13.8595 35.5613 20.9121C35.5613 28.263 30.9297 34.1753 24.5087 34.1753C22.3508 34.1753 20.3157 33.0525 19.6315 31.7192C19.6315 31.7192 18.5613 35.7893 18.2981 36.7893C17.8244 38.649 16.5262 40.9648 15.649 42.3858C17.649 42.9999 19.7543 43.3332 21.9648 43.3332C33.7367 43.3332 43.2806 33.7893 43.2806 22.0174C43.3157 10.2104 33.7718 0.666504 21.9999 0.666504Z" fill="#E60023"/>
</svg>
