<?xml version="1.0" encoding="utf-8"?>
<!-- Generator: Adobe Illustrator 16.0.0, SVG Export Plug-In . SVG Version: 6.00 Build 0)  -->
<!DOCTYPE svg PUBLIC "-//W3C//DTD SVG 1.1//EN" "http://www.w3.org/Graphics/SVG/1.1/DTD/svg11.dtd">
<svg version="1.1" id="Layer_1" xmlns="http://www.w3.org/2000/svg" xmlns:xlink="http://www.w3.org/1999/xlink" x="0px" y="0px"
	 width="17px" height="16px" viewBox="0 0 17 16" enable-background="new 0 0 17 16" xml:space="preserve">
<g>
	<path fill-rule="evenodd" clip-rule="evenodd" fill="#CD102E" d="M9.55,0.55c0.7,0.667,1.384,1.95,2.05,3.85h1.551
		c1.3,0.067,2.283,0.267,2.949,0.6c0.034,0,0.067,0.017,0.101,0.05c0.066,0.067,0.133,0.117,0.2,0.15
		c0.233,0.167,0.399,0.366,0.5,0.6c0.1,0.233,0.116,0.534,0.05,0.9C16.917,6.767,16.884,6.867,16.85,7c0,0.033-0.017,0.066-0.05,0.1
		c-0.366,0.867-1.383,1.95-3.05,3.25L14,11.1c0.533,1.533,0.75,2.7,0.65,3.5c0,0.033-0.017,0.067-0.051,0.101
		c0,0.1-0.017,0.2-0.05,0.3c-0.066,0.267-0.2,0.483-0.399,0.65c-0.2,0.166-0.45,0.267-0.75,0.3C13.3,15.983,13.2,16,13.1,16
		c-0.033,0-0.066,0-0.1,0c-0.934-0.066-2.267-0.6-4-1.6c-0.1-0.067-0.2-0.134-0.3-0.2c-0.066-0.033-0.15-0.084-0.25-0.15v0.05
		c-0.066,0.033-0.134,0.067-0.2,0.101c-0.1,0.066-0.2,0.116-0.3,0.149c-1.7,1.033-3.034,1.584-4,1.65c-0.067,0-0.117,0-0.15,0
		c-0.1,0-0.2-0.017-0.3-0.05c-0.267-0.033-0.5-0.134-0.7-0.3C2.6,15.517,2.45,15.3,2.35,15c-0.034-0.1-0.05-0.2-0.05-0.3
		c-0.033-0.033-0.05-0.067-0.05-0.101c-0.1-0.833,0.133-2.066,0.7-3.699c0.066-0.2,0.133-0.384,0.2-0.551V10.3
		c-1.566-1.267-2.533-2.333-2.9-3.2C0.217,7.066,0.2,7.017,0.2,6.95C0.167,6.883,0.133,6.8,0.1,6.7C0.033,6.4,0.05,6.133,0.15,5.9
		c0.067-0.233,0.233-0.45,0.5-0.65C0.717,5.183,0.8,5.117,0.9,5.05C0.934,5.05,0.967,5.033,1,5c0.833-0.434,2.283-0.633,4.35-0.6
		c0.1-0.267,0.183-0.517,0.25-0.75L5.7,3.4c0.533-1.333,1.083-2.283,1.65-2.85c0.033-0.033,0.066-0.066,0.1-0.1
		C7.517,0.417,7.6,0.367,7.7,0.3c0.233-0.133,0.467-0.216,0.7-0.25c0.267,0,0.533,0.083,0.8,0.25C9.267,0.367,9.35,0.433,9.45,0.5
		C9.483,0.5,9.517,0.517,9.55,0.55z"/>
</g>
</svg>
