<?xml version="1.0" encoding="utf-8"?>
<!-- Generator: Adobe Illustrator 16.0.0, SVG Export Plug-In . SVG Version: 6.00 Build 0)  -->
<!DOCTYPE svg PUBLIC "-//W3C//DTD SVG 1.1//EN" "http://www.w3.org/Graphics/SVG/1.1/DTD/svg11.dtd">
<svg version="1.1" id="Layer_1" xmlns="http://www.w3.org/2000/svg" xmlns:xlink="http://www.w3.org/1999/xlink" x="0px" y="0px"
	 width="36px" height="32px" viewBox="0 0 36 32" enable-background="new 0 0 36 32" xml:space="preserve">
<g>
	<path fill-rule="evenodd" clip-rule="evenodd" fill="#987D8C" d="M34.45,8.7c0.41,0.003,0.761,0.153,1.05,0.45
		c0.297,0.29,0.446,0.639,0.45,1.05v7.5c-0.004,0.41-0.153,0.761-0.45,1.05c-0.289,0.297-0.64,0.446-1.05,0.45H12.1v2.5h19.8
		c0.399,0,0.75,0.149,1.05,0.45c0.3,0.3,0.45,0.649,0.45,1.05c0,0.399-0.15,0.75-0.45,1.05S32.3,24.7,31.9,24.7H10.6
		c-0.4,0-0.75-0.15-1.05-0.45c-0.3-0.3-0.45-0.65-0.45-1.05v-4H7.5c-0.411-0.004-0.761-0.153-1.05-0.45
		C6.153,18.461,6.003,18.11,6,17.7V3.15H1.6C1.2,3.15,0.85,3,0.55,2.7C0.25,2.4,0.1,2.05,0.1,1.65S0.25,0.9,0.55,0.6
		C0.85,0.3,1.2,0.15,1.6,0.15h5.9c0.4,0,0.75,0.15,1.05,0.45C8.85,0.9,9,1.25,9,1.65V16.2h23.95v-6
		c0.003-0.411,0.153-0.761,0.45-1.05C33.689,8.854,34.039,8.704,34.45,8.7z M25.75,29c0-0.8,0.283-1.5,0.85-2.1
		C27.2,26.333,27.9,26.05,28.7,26.05s1.483,0.283,2.05,0.851c0.566,0.6,0.85,1.3,0.85,2.1s-0.283,1.483-0.85,2.05
		S29.5,31.9,28.7,31.9s-1.5-0.284-2.101-0.851C26.033,30.483,25.75,29.8,25.75,29z M15.7,26.9c0.566,0.6,0.85,1.3,0.85,2.1
		s-0.283,1.483-0.85,2.05c-0.567,0.566-1.25,0.851-2.05,0.851c-0.8,0-1.5-0.284-2.1-0.851C10.983,30.483,10.7,29.8,10.7,29
		s0.283-1.5,0.85-2.1c0.6-0.567,1.3-0.851,2.1-0.851C14.45,26.05,15.133,26.333,15.7,26.9z"/>
</g>
</svg>
