<svg width="14" height="13" viewBox="0 0 14 13" fill="none" xmlns="http://www.w3.org/2000/svg">
  <path fill-rule="evenodd" clip-rule="evenodd" d="M13.7727 0.273639C14.0506 0.565454 13.9428 0.990007 13.4489 1.54798C10.6199 4.53011 8.12614 8.0538 5.96769 12.119C5.81614 12.4102 5.68209 12.6065 5.56519 12.7095C5.41364 12.8347 5.23269 12.8833 5.02269 12.8549C4.72029 12.7978 4.48124 12.5668 4.30519 12.1621C4.28734 12.1255 4.26984 12.0886 4.25269 12.051C3.29999 10.1471 2.00499 8.41677 0.367695 6.85916C0.297695 6.79074 0.233645 6.72814 0.175195 6.67101C0.0467449 6.49995 0.0467449 6.31761 0.175195 6.12364L0.183945 6.11509C0.357545 5.92659 0.620045 5.91222 0.971445 6.07232C2.31299 6.66622 3.51174 7.39627 4.56769 8.2618C6.83044 5.38982 9.47854 2.81274 12.5127 0.529876C12.5424 0.505586 12.5715 0.483007 12.6002 0.461454C13.0699 0.0622176 13.4545 -0.00620341 13.7552 0.256191C13.7625 0.263033 13.7685 0.268849 13.7727 0.273639Z" fill="url(#paint0_linear)"/>
  <defs>
    <linearGradient id="paint0_linear" x1="1.97269" y1="11.3412" x2="9.13549" y2="-0.233469" gradientUnits="userSpaceOnUse">
      <stop stop-color="#AE0A11"/>
      <stop offset="1" stop-color="#DF1A21"/>
    </linearGradient>
  </defs>
</svg>
