<svg width="23" height="22" viewBox="0 0 23 22" fill="none" xmlns="http://www.w3.org/2000/svg">
<path fill-rule="evenodd" clip-rule="evenodd" d="M6.28027 7.90384C6.69668 7.90384 7.04349 8.04947 7.3213 8.34071C7.61874 8.63196 7.76746 8.98145 7.76746 9.3892C7.76746 9.79694 7.61874 10.1365 7.3213 10.4086C7.04349 10.6998 6.69668 10.8454 6.28027 10.8454C5.86386 10.8454 5.49682 10.6998 5.17975 10.4086C4.90195 10.1365 4.76334 9.79694 4.76334 9.3892C4.76334 8.98145 4.90195 8.63196 5.17975 8.34071C5.49682 8.04947 5.86386 7.90384 6.28027 7.90384ZM1.26845 1.20519C2.11139 0.325044 3.41535 -0.0733807 5.17975 0.0110806H17.7762C17.7905 0.0104981 17.806 0.0104981 17.8208 0.0110806C19.5852 -0.0733807 20.8886 0.325044 21.7316 1.20519C22.6268 2.02825 23.048 3.31905 22.9957 5.07876V12.9424C23.048 14.7021 22.6268 15.9929 21.7316 16.816C20.8886 17.6961 19.5852 18.094 17.8208 18.0101H17.2855C17.2807 18.7795 17.4205 19.7506 17.7019 20.9225C17.7548 21.1363 17.7304 21.3402 17.6275 21.5342C17.5258 21.7275 17.3717 21.8633 17.1665 21.9419C16.9541 22.0194 16.7406 22.0194 16.527 21.9419C13.9488 21.0245 12.2486 19.7139 11.4265 18.0101H5.22437C5.2095 18.0112 5.19462 18.0112 5.17975 18.0101C3.41535 18.094 2.11139 17.6961 1.26845 16.816C0.373163 15.9929 -0.0480086 14.7015 0.00434039 12.9424V5.07876C-0.0480086 3.31963 0.373163 2.02825 1.26845 1.20519ZM2.51769 2.42842C1.99003 2.9981 1.74732 3.87184 1.78896 5.04963V12.9715C1.74732 14.1487 1.99003 15.0225 2.51769 15.5927C3.09472 16.103 3.9674 16.3261 5.13514 16.262C5.15001 16.2614 5.16488 16.2614 5.17975 16.262H12.0208C12.2052 16.2632 12.3736 16.3162 12.5265 16.4222C12.6799 16.5247 12.7888 16.6604 12.8536 16.8299C13.3123 17.9711 14.2391 18.9129 15.6347 19.655C15.4693 18.5669 15.4491 17.6786 15.5752 16.9901C15.6091 16.7799 15.7084 16.6051 15.8726 16.4665C16.0404 16.3296 16.2337 16.2609 16.4526 16.262H17.8214C17.8357 16.2614 17.8506 16.2614 17.8655 16.262C19.0338 16.3255 19.9065 16.103 20.4829 15.5927C21.0106 15.0225 21.2533 14.1487 21.2116 12.9715V5.04963C21.2533 3.87242 21.0106 2.99868 20.4829 2.42842C19.9059 1.91816 19.0332 1.69506 17.8655 1.75856C17.8506 1.75914 17.8357 1.75914 17.8214 1.75856H5.17975C5.16547 1.75914 5.1506 1.75914 5.13514 1.75856C3.9668 1.69506 3.09472 1.91816 2.51769 2.42842ZM13.0024 9.3892C13.0024 9.79694 12.8536 10.1365 12.5562 10.4086C12.2784 10.6998 11.9316 10.8454 11.5152 10.8454C11.0988 10.8454 10.7323 10.6998 10.4147 10.4086C10.1368 10.1365 9.99824 9.79694 9.99824 9.3892C9.99824 8.98145 10.1368 8.63196 10.4147 8.34071C10.7317 8.04947 11.0988 7.90384 11.5152 7.90384C11.9316 7.90384 12.2784 8.04947 12.5562 8.34071C12.8536 8.63196 13.0024 8.98145 13.0024 9.3892ZM15.6495 8.34071C15.9666 8.04947 16.3337 7.90384 16.7501 7.90384C17.1665 7.90384 17.5133 8.04947 17.7911 8.34071C18.0885 8.63196 18.2373 8.98145 18.2373 9.3892C18.2373 9.79694 18.0885 10.1365 17.7911 10.4086C17.5133 10.6998 17.1665 10.8454 16.7501 10.8454C16.3343 10.8454 15.9672 10.6998 15.6495 10.4086C15.3717 10.1365 15.2331 9.79694 15.2331 9.3892C15.2331 8.98145 15.3717 8.63196 15.6495 8.34071Z" fill="#987D8C"/>
</svg>
