<svg width="42" height="42" viewBox="0 0 42 42" fill="none" xmlns="http://www.w3.org/2000/svg">
  <path fill-rule="evenodd" clip-rule="evenodd" d="M20.9999 0C26.7822 0 31.7127 2.03883 35.7912 6.11739C39.8999 10.2261 41.9543 15.172 41.9543 20.9543C41.9543 26.7367 39.8999 31.6671 35.7912 35.7457C31.9565 39.6106 27.3611 41.6649 22.0034 41.9087C21.6692 41.9087 21.335 41.9087 20.999 41.9087C20.3599 41.9087 19.7363 41.8932 19.1273 41.863C14.1357 41.4367 9.81424 39.3978 6.16207 35.7457C2.0835 31.6671 0.0446777 26.7367 0.0446777 20.9543C0.0446777 15.172 2.0835 10.2261 6.16207 6.11739C10.2717 2.03883 15.2176 0 20.9999 0ZM22.6891 16.0239C22.7192 14.9283 23.3437 14.3503 24.5617 14.2891H27.2086V10.2261C21.1825 9.19161 18.1092 11.1391 17.9869 16.0696V19.3109H14.1065V23.8761H17.9869V35.5174H22.6882V23.8761H26.4782L27.2086 19.3109H22.6891V16.0239Z" fill="#3C599B"/>
  <path fill-rule="evenodd" clip-rule="evenodd" d="M22.6891 16.024V19.311H27.2086L26.4782 23.8762H22.6891V35.5175H17.9869V23.8762H14.1064V19.311H17.9869V16.0697C18.1083 11.1392 21.1825 9.1917 27.2086 10.2262V14.2892H24.5608C23.3428 14.3504 22.7192 14.9284 22.6891 16.024Z" fill="#FEFFFA"/>
</svg>
