<?xml version="1.0" encoding="utf-8"?>
<!-- Generator: Adobe Illustrator 16.0.0, SVG Export Plug-In . SVG Version: 6.00 Build 0)  -->
<!DOCTYPE svg PUBLIC "-//W3C//DTD SVG 1.1//EN" "http://www.w3.org/Graphics/SVG/1.1/DTD/svg11.dtd">
<svg version="1.1" id="Layer_1" xmlns="http://www.w3.org/2000/svg" xmlns:xlink="http://www.w3.org/1999/xlink" x="0px" y="0px"
	 width="37px" height="37px" viewBox="0 0 37 37" enable-background="new 0 0 37 37" xml:space="preserve">
<g>
	<path fill-rule="evenodd" clip-rule="evenodd" fill="#D1C4CB" d="M31.318,5.385c3.587,3.587,5.381,7.91,5.381,12.97
		s-1.794,9.384-5.381,12.97c-3.587,3.587-7.91,5.38-12.97,5.38c-5.061,0-9.384-1.793-12.97-5.38c-3.587-3.586-5.38-7.91-5.38-12.97
		s1.793-9.383,5.38-12.97c3.586-3.587,7.91-5.381,12.97-5.381C23.408,0.004,27.731,1.798,31.318,5.385z"/>
	<g>
		<g>
			<path fill-rule="evenodd" clip-rule="evenodd" fill="#FFFFFF" d="M34.05,12.85H2.8c0.767-2.267,2.083-4.317,3.95-6.15
				c3.233-3.233,7.117-4.85,11.65-4.85c4.566,0,8.466,1.617,11.699,4.85C31.9,8.533,33.217,10.583,34.05,12.85z"/>
			<path fill-rule="evenodd" clip-rule="evenodd" fill="#0057D9" d="M2.8,12.85h31.25c0.566,1.733,0.851,3.583,0.851,5.55
				c0,1.933-0.284,3.75-0.851,5.45H2.8c-0.633-1.699-0.95-3.517-0.95-5.45C1.85,16.433,2.167,14.583,2.8,12.85z"/>
			<path fill-rule="evenodd" clip-rule="evenodd" fill="#DD2F14" d="M2.8,23.85h31.25c-0.8,2.301-2.116,4.367-3.95,6.2
				C26.866,33.283,22.967,34.9,18.4,34.9c-4.534,0-8.417-1.617-11.65-4.851C4.883,28.217,3.566,26.15,2.8,23.85z"/>
		</g>
	</g>
</g>
</svg>
