<?xml version="1.0" encoding="utf-8"?>
<!-- Generator: Adobe Illustrator 16.0.0, SVG Export Plug-In . SVG Version: 6.00 Build 0)  -->
<!DOCTYPE svg PUBLIC "-//W3C//DTD SVG 1.1//EN" "http://www.w3.org/Graphics/SVG/1.1/DTD/svg11.dtd">
<svg version="1.1" id="Layer_1" xmlns="http://www.w3.org/2000/svg" xmlns:xlink="http://www.w3.org/1999/xlink" x="0px" y="0px"
	 width="30px" height="28px" viewBox="0 0 30 28" enable-background="new 0 0 30 28" xml:space="preserve">
<path fill-rule="evenodd" clip-rule="evenodd" fill="#CD102C" d="M28.7,4.55c1.2,2.1,1.583,4.367,1.149,6.8
	c-0.633,4.9-5.233,10.233-13.8,16c-0.166,0.101-0.35,0.217-0.55,0.351L15,28l-0.5-0.3c-0.185-0.123-0.368-0.248-0.55-0.375
	C5.383,21.575,0.783,16.25,0.15,11.35c-0.433-2.434-0.05-4.7,1.15-6.8c1.233-2.066,3-3.433,5.3-4.1c2-0.6,3.833-0.567,5.5,0.1
	c0.687,0.247,1.303,0.58,1.85,1c0.384,0.286,0.734,0.611,1.05,0.975V2.55c0.3-0.367,0.65-0.7,1.05-1c0.533-0.433,1.15-0.767,1.851-1
	c1.666-0.667,3.5-0.7,5.5-0.1C25.7,1.117,27.467,2.483,28.7,4.55z"/>
</svg>
