<?xml version="1.0" encoding="utf-8"?>
<!-- Generator: Adobe Illustrator 16.0.0, SVG Export Plug-In . SVG Version: 6.00 Build 0)  -->
<!DOCTYPE svg PUBLIC "-//W3C//DTD SVG 1.1//EN" "http://www.w3.org/Graphics/SVG/1.1/DTD/svg11.dtd">
<svg version="1.1" id="Layer_1" xmlns="http://www.w3.org/2000/svg" xmlns:xlink="http://www.w3.org/1999/xlink" x="0px" y="0px"
	 width="36px" height="34px" viewBox="0 0 36 34" enable-background="new 0 0 36 34" xml:space="preserve">
<g>
	<path fill-rule="evenodd" clip-rule="evenodd" fill="#987D8C" d="M9.775,4.1c0.086-0.404,0.303-0.72,0.65-0.95
		C13.068,1.387,16.06,0.503,19.4,0.5c4.54,0,8.424,1.625,11.649,4.875L31.075,5.4c3.25,3.226,4.875,7.109,4.875,11.65
		c0,4.553-1.634,8.444-4.9,11.675V28.7c-3.224,3.23-7.106,4.847-11.649,4.85c-3.34-0.007-6.332-0.873-8.976-2.6
		c-0.347-0.229-0.563-0.546-0.65-0.95C9.694,29.597,9.769,29.222,10,28.875c0.229-0.348,0.545-0.564,0.95-0.65
		c0.402-0.08,0.777-0.006,1.125,0.226c2.156,1.406,4.598,2.106,7.325,2.1c3.723,0.003,6.906-1.313,9.55-3.95v-0.024
		c2.667-2.636,4-5.811,4-9.525c0-3.714-1.333-6.889-4-9.525L28.925,7.5c-2.636-2.667-5.811-4-9.524-4
		c-2.727-0.004-5.168,0.713-7.325,2.15c-0.347,0.231-0.722,0.306-1.125,0.225C10.546,5.79,10.229,5.573,10,5.225
		C9.769,4.88,9.694,4.505,9.775,4.1z M7.2,9.15C7.567,8.783,8,8.6,8.5,8.6c0.7-0.034,1.15,0.283,1.35,0.95
		c0.167,0.6-0.017,1.25-0.55,1.95l-2.9,3.65l11.55,0.5c0.399,0,0.75,0.133,1.05,0.4c0.233,0.3,0.35,0.617,0.35,0.95
		c0,0.366-0.116,0.667-0.35,0.9c-0.3,0.333-0.65,0.5-1.05,0.5L6.35,18.85c1.133,1.634,2.1,2.983,2.9,4.051
		c0.867,1.033,0.867,1.85,0,2.449C8.983,25.417,8.733,25.45,8.5,25.45c-0.5,0-0.933-0.184-1.3-0.55L0.65,18.35
		c-0.033,0-0.05-0.017-0.05-0.05c-0.367-0.366-0.55-0.8-0.55-1.3s0.184-0.934,0.55-1.3L7.2,9.15z"/>
</g>
</svg>
