<?xml version="1.0" encoding="utf-8"?>
<!-- Generator: Adobe Illustrator 16.0.0, SVG Export Plug-In . SVG Version: 6.00 Build 0)  -->
<!DOCTYPE svg PUBLIC "-//W3C//DTD SVG 1.1//EN" "http://www.w3.org/Graphics/SVG/1.1/DTD/svg11.dtd">
<svg version="1.1" id="Layer_1" xmlns="http://www.w3.org/2000/svg" xmlns:xlink="http://www.w3.org/1999/xlink" x="0px" y="0px"
	 width="233px" height="74px" viewBox="0 0 233 74" enable-background="new 0 0 233 74" xml:space="preserve">
<g>
	<g>
		<path fill-rule="evenodd" clip-rule="evenodd" fill="#CC0F2B" d="M27.6,0c7.633,0,14.133,2.683,19.5,8.05
			c5.4,5.4,8.1,11.917,8.1,19.55s-2.7,14.133-8.1,19.5C41.733,52.5,35.233,55.2,27.6,55.2S13.45,52.5,8.05,47.1
			C2.684,41.733,0,35.233,0,27.6S2.684,13.45,8.05,8.05C13.45,2.683,19.967,0,27.6,0z"/>
		<g>
			<path fill-rule="evenodd" clip-rule="evenodd" fill="#FFFFFF" d="M43.7,45.45c0-1-0.284-1.983-0.85-2.95
				c-0.633-1.066-1.567-2-2.8-2.8c-0.066,0-0.133,0-0.2,0c-0.267-0.033-0.534-0.05-0.8-0.05c-0.133-0.034-0.25-0.034-0.35,0
				l-1.1,0.05c-0.333,0.066-0.667,0.133-1,0.2c-0.133,0.033-0.25,0.066-0.35,0.1c-0.867,0.2-1.583,0.566-2.15,1.1
				c-0.7,0.534-1.217,1.167-1.55,1.9c-0.3,0.866-0.383,1.733-0.25,2.6c0.1,0.867,0.383,1.684,0.85,2.45c0.5,0.767,1.1,1.334,1.8,1.7
				c0.466,0.2,0.9,0.366,1.3,0.5c0.267,0.033,0.517,0.066,0.75,0.1c0.066,0,0.15,0.017,0.25,0.051c0.167,0,0.316,0,0.45,0h0.05
				c0.367,0,0.717-0.017,1.05-0.051l0.6-0.1c0.533-0.134,1.1-0.3,1.7-0.5c0.8-0.333,1.45-0.9,1.95-1.7
				C43.483,47.25,43.7,46.384,43.7,45.45z M41.85,28.95c0.433-1.467,0.35-3.267-0.25-5.4c-0.534-1.633-1.4-2.783-2.6-3.45
				c-1.033-0.633-2.083-0.8-3.15-0.5c-1,0.367-1.7,1.15-2.1,2.35c-0.4,1.267-0.467,2.816-0.2,4.65c0.534,1.867,1.367,3.25,2.5,4.15
				c1.1,0.9,2.233,1.15,3.4,0.75C40.683,31.133,41.483,30.283,41.85,28.95z M43.5,19.6c0.733,0.7,1.267,1.65,1.6,2.85
				c0.6,1.667,0.65,3.283,0.15,4.85c-0.167,0.733-0.434,1.383-0.8,1.95c-0.1,0.333-0.267,0.617-0.5,0.85
				c-0.367,0.5-0.784,0.967-1.25,1.4c-0.134,0.133-0.284,0.267-0.45,0.4c-1.467,1.533-1.3,3.05,0.5,4.55
				c0.133,0.066,0.267,0.15,0.4,0.25c3.934,2.866,4.917,6.483,2.95,10.85c-1.867,3.334-5.2,4.934-10,4.8c-0.267,0-0.517,0-0.75,0
				c-2.367-0.3-4.167-1.199-5.4-2.699c-0.2-0.301-0.384-0.667-0.55-1.101c-0.367-0.8-0.55-1.666-0.55-2.6
				c0-0.9,0.183-1.851,0.55-2.851c1.233-2.466,3.467-4.017,6.7-4.649c0.833-0.134,1.733-0.217,2.7-0.25
				c-1.233-1.6-1.483-3.25-0.75-4.95c-2.433,0.167-4.35-0.35-5.75-1.55c-1.533-1.233-2.383-3.083-2.55-5.55
				c-0.067-1.2,0.133-2.333,0.6-3.4c0.433-1.033,1.083-1.933,1.95-2.7c0.767-0.767,1.7-1.367,2.8-1.8c1.1-0.5,2.233-0.783,3.4-0.85
				h6.15c0.067,0.6-0.217,1.033-0.85,1.3C43.167,18.9,43.066,19.2,43.5,19.6z M9.25,6.3L8.1,5.8h16.05v5
				c-0.233-0.7-0.566-1.316-1-1.85c-0.867-1.067-2.05-1.567-3.55-1.5h-3.2c-0.4-0.034-0.717,0.1-0.95,0.4
				c-0.3,0.333-0.417,0.833-0.35,1.5v3.7c-0.067,1.567,0.117,2.65,0.55,3.25c0.333,0.534,1.067,0.934,2.2,1.2
				c0.966,0.3,2.066,0.467,3.3,0.5l0.5,1.4l-2.85,0.2c-1.233,0.133-2.183,0.733-2.85,1.8c-0.5,0.833-0.784,1.9-0.85,3.2V29
				c0,0.833,0.066,1.467,0.2,1.9c0.1,0.467,0.3,0.767,0.6,0.9c0.4,0.2,0.85,0.3,1.35,0.3c2.167,0.133,3.7,0.1,4.6-0.1
				c1.133-0.2,2.2-0.783,3.2-1.75c0.667-0.7,1.034-1.417,1.1-2.15l2.2,5.7H7.8c1.7-0.533,2.684-1.2,2.95-2
				c0.2-0.767,0.3-1.683,0.3-2.75V22.4v-6.55V10.5c0-1.033-0.1-1.9-0.3-2.6C10.483,7.1,9.983,6.567,9.25,6.3z"/>
		</g>
	</g>
	<g>
		<g>
			<path fill-rule="evenodd" clip-rule="evenodd" d="M183.35,39.7c0.601-2.066,0.467-4.65-0.399-7.75C182.217,29.65,181,28,179.3,27
				c-1.566-0.9-3.1-1.117-4.6-0.65c-1.434,0.5-2.45,1.617-3.05,3.35c-0.534,1.767-0.617,3.983-0.25,6.65
				c0.767,2.7,1.966,4.683,3.6,5.95c1.6,1.3,3.25,1.667,4.95,1.101C181.65,42.866,182.783,41.634,183.35,39.7z M186.2,25
				c-0.967,0.3-1.101,0.733-0.4,1.3c1.033,1,1.816,2.383,2.351,4.15c0.732,2.333,0.8,4.65,0.199,6.95c-0.3,1-0.683,1.933-1.149,2.8
				c-0.233,0.399-0.5,0.783-0.8,1.149c-0.534,0.733-1.134,1.417-1.801,2.051c-0.233,0.166-0.449,0.35-0.649,0.55
				c-2.101,2.233-1.867,4.416,0.7,6.55c0.199,0.1,0.383,0.217,0.55,0.35c5.733,4.101,7.133,9.284,4.2,15.551
				c-2.634,4.8-7.417,7.116-14.351,6.949c-0.366,0-0.733-0.017-1.1-0.05c-3.4-0.366-5.967-1.649-7.7-3.85
				c-0.333-0.467-0.617-0.983-0.85-1.55c-0.467-1.167-0.7-2.417-0.7-3.75c0-1.334,0.25-2.684,0.75-4.051
				c1.733-3.633,4.933-5.866,9.6-6.699c1.2-0.2,2.5-0.317,3.9-0.351c-1.834-2.3-2.217-4.684-1.15-7.149
				c-3.399,0.233-6.149-0.5-8.25-2.2c-2.167-1.8-3.366-4.45-3.6-7.95c-0.134-1.733,0.133-3.367,0.8-4.9
				c0.6-1.467,1.533-2.767,2.8-3.9c1.167-1.1,2.533-1.967,4.101-2.6c1.566-0.667,3.199-1.067,4.899-1.2h8.851
				C187.533,24.017,187.133,24.633,186.2,25z M169.55,63.65c0.134,1.267,0.566,2.449,1.3,3.55c0.7,1.033,1.584,1.833,2.65,2.399
				c0.566,0.301,1.167,0.534,1.8,0.7c0.333,0.066,0.684,0.134,1.05,0.2c0.101,0,0.217,0.017,0.351,0.05c0.233,0,0.467,0,0.7,0h0.05
				c0.533,0,1.05-0.033,1.55-0.1l0.85-0.101c0.801-0.199,1.584-0.466,2.351-0.8c1.2-0.467,2.149-1.25,2.85-2.35
				c0.667-1.134,1-2.384,1-3.75c-0.033-1.467-0.45-2.9-1.25-4.3c-0.934-1.534-2.267-2.884-4-4.051c-0.1,0-0.217,0-0.35,0
				c-0.367-0.033-0.717-0.05-1.05-0.05c-0.233-0.033-0.45-0.033-0.65,0l-1.5,0.101c-0.5,0.066-1,0.166-1.5,0.3
				c-0.167,0.033-0.316,0.066-0.45,0.1c-1.2,0.334-2.233,0.867-3.1,1.601c-1,0.8-1.75,1.733-2.25,2.8
				C169.483,61.116,169.35,62.35,169.55,63.65z"/>
		</g>
		<polygon fill-rule="evenodd" clip-rule="evenodd" fill="#FF99FF" points="232.4,39.2 232.35,39.3 232.25,39.35 232.15,39.1 
			232.3,39.1 		"/>
		<g>
			<path fill-rule="evenodd" clip-rule="evenodd" d="M87.4,5.7v7.25c-0.333-1-0.816-1.9-1.45-2.7c-1.267-1.533-2.967-2.233-5.1-2.1
				L76.2,8.1c-0.534-0.033-0.983,0.15-1.35,0.55c-0.467,0.5-0.65,1.233-0.55,2.2v5.3c-0.066,2.233,0.217,3.8,0.85,4.7
				c0.5,0.733,1.55,1.316,3.15,1.75c1.434,0.4,3,0.617,4.7,0.65l0.8,2l-4.05,0.3c-1.833,0.2-3.217,1.067-4.15,2.6
				c-0.767,1.233-1.2,2.767-1.3,4.6v6.3c0,1.2,0.1,2.117,0.3,2.75c0.167,0.634,0.466,1.066,0.9,1.3
				c0.566,0.267,1.217,0.417,1.95,0.45c3.133,0.167,5.35,0.117,6.65-0.149c1.633-0.334,3.133-1.2,4.5-2.601
				c0.966-0.967,1.5-1.983,1.6-3.05l3.2,8.15H63.95c2.4-0.733,3.783-1.684,4.15-2.851c0.333-1.1,0.5-2.399,0.5-3.899V29.6v-9.45
				v-7.7c0-1.5-0.167-2.75-0.5-3.75c-0.367-1.067-1.05-1.817-2.05-2.25L64.4,5.7H87.4z"/>
		</g>
		<g>
			<path fill-rule="evenodd" clip-rule="evenodd" d="M110.6,25.55c-0.467,0.9-1.034,2.133-1.7,3.7c-0.367,0.833-1.417,3.4-3.15,7.7
				c-1.667,4.1-2.85,7.083-3.55,8.95h-2.25c-1.167-2.934-2.284-5.784-3.35-8.551c-1.2-2.933-2.184-5.383-2.95-7.35
				c-0.767-2-1.383-3.45-1.85-4.35c-0.5-1.066-1.417-1.9-2.75-2.5h11.35v0.1c-0.167,0-0.683,0.25-1.55,0.75
				c-0.9,0.533-1.067,1.6-0.5,3.2c0.533,1.533,1.066,3,1.6,4.4c0.5,1.467,0.983,2.85,1.45,4.15c0.4,0.967,0.75,1.833,1.05,2.6
				c2.167-4.899,3.6-8.566,4.3-11c0.467-1.633,0.25-2.733-0.65-3.3c-0.9-0.533-1.45-0.833-1.65-0.9h9
				C112.05,23.717,111.1,24.517,110.6,25.55z"/>
		</g>
		<g>
			<path fill-rule="evenodd" clip-rule="evenodd" d="M123.45,23.15h0.1c1.5,0,2.867,0.383,4.101,1.15
				c1.133,0.7,2.083,1.583,2.85,2.65c0.7,1.133,1.1,2.35,1.2,3.65c0.1,1.267-0.117,2.417-0.65,3.45L118.1,34.2
				c0.067,1.3,0.483,2.633,1.25,4c0.667,1.233,1.567,2.149,2.7,2.75c0.9,0.533,2.134,0.866,3.7,1c2.2,0.133,4.116-0.367,5.75-1.5
				c-0.2,1.1-0.816,2.1-1.85,3c-1,0.934-2.25,1.649-3.75,2.149c-0.733,0.2-1.551,0.301-2.45,0.301c-2.167,0-4.05-0.483-5.65-1.45
				c-1.533-0.934-2.75-2.2-3.65-3.8c-0.833-1.601-1.283-3.351-1.35-5.25c-0.066-1.833,0.233-3.5,0.9-5c0.6-1.5,1.4-2.767,2.399-3.8
				c1.033-1.067,2.184-1.917,3.45-2.55C120.816,23.45,122.116,23.15,123.45,23.15z M126.4,27.8c-0.867-1.633-2.15-2.433-3.851-2.4
				c-1.566,0.033-2.767,0.883-3.6,2.55c-0.567,1.066-0.851,2.283-0.851,3.65h9.15C127.25,30.133,126.967,28.867,126.4,27.8z"/>
		</g>
		<g>
			<path fill-rule="evenodd" clip-rule="evenodd" d="M142.3,25.75c0.3-0.267,0.617-0.5,0.95-0.7c0.6-0.333,1.25-0.633,1.95-0.9
				c0.233-0.1,0.467-0.183,0.7-0.25c0.199-0.066,0.399-0.133,0.6-0.2c1.3-0.367,2.616-0.517,3.95-0.45l0.899,0.1V30H151
				c-0.233-0.733-0.566-1.4-1-2c-0.467-0.567-1.05-1.017-1.75-1.35c-1.066-0.5-2.083-0.483-3.05,0.05c-1.934,1-2.9,2.833-2.9,5.5
				v8.25c-0.2,2.533,1.134,4.35,4,5.45H133.65c1.267-0.434,2.183-1.334,2.75-2.7c0.366-0.9,0.55-1.816,0.55-2.75V29.8
				c0.033-0.966-0.067-2.233-0.3-3.8c-0.233-1.567-0.983-2.517-2.25-2.85h7.899V25.75z"/>
		</g>
		<g>
			<g>
				<path fill-rule="evenodd" clip-rule="evenodd" fill="#CD102C" d="M156.05,12.9c0.767-0.767,1.684-1.15,2.75-1.15
					c1.134,0,2.101,0.383,2.9,1.15c0.5,0.533,0.833,1.2,1,2c0.033,0.3,0.05,0.617,0.05,0.95c0,1.066-0.35,1.95-1.05,2.65
					c-0.8,0.767-1.783,1.2-2.95,1.3c-1.033-0.1-1.967-0.533-2.8-1.3c-0.7-0.7-1.084-1.583-1.15-2.65
					c0.033-0.333,0.083-0.65,0.15-0.95C155.116,14.1,155.483,13.433,156.05,12.9z"/>
				<path fill-rule="evenodd" clip-rule="evenodd" d="M155.6,23.2h1.75h6.7c-2.233,0.566-3.267,2.833-3.1,6.8v6.7v3.45
					c0,1.199,0.1,2.1,0.3,2.699c0.467,1.367,1.45,2.384,2.95,3.051H152.1c2.367-0.767,3.533-2.684,3.5-5.75V23.2z"/>
			</g>
		</g>
		<g>
			<g>
				<path fill-rule="evenodd" clip-rule="evenodd" fill="#CD102C" d="M201,14.9c0.033,0.3,0.05,0.617,0.05,0.95
					c0,1.066-0.35,1.95-1.05,2.65c-0.8,0.767-1.783,1.2-2.95,1.3c-1.033-0.1-1.967-0.533-2.8-1.3c-0.7-0.7-1.083-1.583-1.15-2.65
					c0.033-0.333,0.084-0.65,0.15-0.95c0.167-0.8,0.533-1.467,1.1-2c0.767-0.767,1.684-1.15,2.75-1.15c1.134,0,2.101,0.383,2.9,1.15
					C200.5,13.433,200.833,14.1,201,14.9z"/>
				<path fill-rule="evenodd" clip-rule="evenodd" d="M195.45,30c0.166-3.967-0.867-6.233-3.101-6.8h6.7h1.75v16.95
					c-0.033,3.066,1.134,4.983,3.5,5.75h-12.1c1.5-0.667,2.483-1.684,2.95-3.051c0.199-0.6,0.3-1.5,0.3-2.699V36.7V30z"/>
			</g>
		</g>
		<g>
			<path fill-rule="evenodd" clip-rule="evenodd" d="M227.55,25.25c1.134,1.333,1.7,3.283,1.7,5.85v9.35
				c-0.033,1.399,0.133,2.517,0.5,3.35c0.467,1.101,1.35,1.8,2.65,2.101h-11.15c2-0.601,2.883-2.467,2.65-5.601V32
				c0-1.767-0.334-3.083-1-3.95c-0.601-0.667-1.417-0.983-2.45-0.95c-1.5,0.066-3.184,0.967-5.05,2.7v10.65
				c-0.034,1.666,0.416,3.066,1.35,4.2c0.467,0.566,0.95,0.983,1.45,1.25h-11.55c2.267-0.934,3.399-2.767,3.399-5.5v-3.7v-4.3V30
				c0.167-3.967-0.866-6.233-3.1-6.8h5.149v-0.05h3.301v3.35c1.466-1.133,2.232-1.733,2.3-1.8c1.666-1,3.333-1.517,5-1.55
				C224.8,23.15,226.417,23.85,227.55,25.25z"/>
		</g>
	</g>
</g>
</svg>
