<?xml version="1.0" encoding="utf-8"?>
<!-- Generator: Adobe Illustrator 16.0.0, SVG Export Plug-In . SVG Version: 6.00 Build 0)  -->
<!DOCTYPE svg PUBLIC "-//W3C//DTD SVG 1.1//EN" "http://www.w3.org/Graphics/SVG/1.1/DTD/svg11.dtd">
<svg version="1.1" id="Layer_1" xmlns="http://www.w3.org/2000/svg" xmlns:xlink="http://www.w3.org/1999/xlink" x="0px" y="0px"
	 width="37px" height="37px" viewBox="0 0 37 37" enable-background="new 0 0 37 37" xml:space="preserve">
<g>
	<path fill-rule="evenodd" clip-rule="evenodd" fill="#D1C4CB" d="M31.318,5.385c3.587,3.587,5.381,7.91,5.381,12.97
		s-1.794,9.384-5.381,12.97c-3.587,3.587-7.91,5.38-12.97,5.38c-5.061,0-9.384-1.793-12.97-5.38c-3.587-3.586-5.38-7.91-5.38-12.97
		s1.793-9.383,5.38-12.97c3.586-3.587,7.91-5.381,12.97-5.381C23.408,0.004,27.731,1.798,31.318,5.385z"/>
	<g>
		<path fill-rule="evenodd" clip-rule="evenodd" fill="#FFFFFF" d="M6.75,6.7c3.233-3.233,7.117-4.85,11.65-4.85
			c4.566,0,8.467,1.617,11.699,4.85c1.801,1.833,3.117,3.883,3.95,6.15c0.567,1.733,0.851,3.583,0.851,5.55
			c0,1.933-0.283,3.75-0.851,5.45c-0.8,2.301-2.116,4.367-3.95,6.2C26.867,33.283,22.967,34.9,18.4,34.9
			c-4.534,0-8.417-1.617-11.65-4.851c-1.867-1.833-3.184-3.899-3.95-6.2c-0.633-1.699-0.95-3.517-0.95-5.45
			c0-1.966,0.316-3.816,0.95-5.55C3.566,10.583,4.883,8.533,6.75,6.7z"/>
	</g>
	<g>
		<path fill-rule="evenodd" clip-rule="evenodd" fill="#987D8C" d="M13.5,13.45c-0.2-0.5-0.3-1.05-0.3-1.65
			c0-0.633,0.1-1.216,0.3-1.75c0.233-0.7,0.65-1.333,1.25-1.9C15.717,7.184,16.9,6.7,18.3,6.7c1.434,0,2.65,0.483,3.65,1.45
			c0.533,0.567,0.917,1.2,1.149,1.9c0.2,0.534,0.301,1.117,0.301,1.75c0,0.6-0.101,1.15-0.301,1.65
			c-0.232,0.733-0.616,1.367-1.149,1.9c-0.5,0.5-1.033,0.883-1.601,1.15c1.934,0.3,3.667,1.117,5.2,2.45
			c1.067,1.033,1.833,2.149,2.3,3.35c0.268,0.667,0.45,1.351,0.551,2.05C27.867,25.15,27.267,25.9,26.6,26.6
			c-1.033,1-2.149,1.801-3.35,2.4c-1.5,0.667-3.15,1-4.95,1c-1.333,0-2.6-0.2-3.8-0.6c-1.6-0.567-3.066-1.5-4.4-2.801
			c-0.7-0.733-1.284-1.483-1.75-2.25c0.066-0.733,0.233-1.416,0.5-2.05c0.466-1.2,1.283-2.316,2.45-3.35
			c1.467-1.3,3.15-2.117,5.05-2.45c-0.6-0.267-1.133-0.65-1.6-1.15C14.15,14.817,13.733,14.184,13.5,13.45z"/>
	</g>
</g>
</svg>
