<?xml version="1.0" encoding="utf-8"?>
<!-- Generator: Adobe Illustrator 16.0.0, SVG Export Plug-In . SVG Version: 6.00 Build 0)  -->
<!DOCTYPE svg PUBLIC "-//W3C//DTD SVG 1.1//EN" "http://www.w3.org/Graphics/SVG/1.1/DTD/svg11.dtd">
<svg version="1.1" id="Layer_1" xmlns="http://www.w3.org/2000/svg" xmlns:xlink="http://www.w3.org/1999/xlink" x="0px" y="0px"
	 width="53px" height="53px" viewBox="0 0 53 53" enable-background="new 0 0 53 53" xml:space="preserve">
<g>
	<g>
		<g>
			<path fill-rule="evenodd" clip-rule="evenodd" fill="#FFFFFF" d="M42.625,42.7l0.025-0.025c4.568-4.536,6.852-10.011,6.85-16.425
				c0.002-6.424-2.281-11.924-6.85-16.5C38.139,5.246,32.672,2.996,26.25,3C19.806,3.002,14.314,5.252,9.775,9.75L9.75,9.775
				C5.252,14.346,3.002,19.837,3,26.25c0.003,6.423,2.261,11.906,6.775,16.45H9.75c4.544,4.537,10.044,6.804,16.5,6.8
				C32.663,49.503,38.121,47.236,42.625,42.7z M52.5,26.25c-0.002,7.241-2.576,13.424-7.725,18.55l-0.025,0.025
				c-5.092,5.113-11.258,7.672-18.5,7.675c-7.278-0.004-13.478-2.571-18.6-7.7H7.625C2.539,39.677-0.003,33.493,0,26.25
				c-0.002-7.243,2.539-13.442,7.625-18.6L7.65,7.625C12.772,2.54,18.972-0.002,26.25,0c7.245,0.004,13.412,2.554,18.5,7.65
				C49.914,12.807,52.498,19.007,52.5,26.25z"/>
			<path fill-rule="evenodd" clip-rule="evenodd" fill-opacity="0.498" d="M42.625,42.7c-4.504,4.536-9.962,6.803-16.375,6.8
				c-6.456,0.004-11.956-2.263-16.5-6.8h0.025C5.261,38.156,3.003,32.673,3,26.25c0.002-6.413,2.252-11.904,6.75-16.475L9.775,9.75
				C14.314,5.252,19.806,3.002,26.25,3c6.422-0.004,11.889,2.246,16.4,6.75c4.568,4.576,6.852,10.076,6.85,16.5
				c0.002,6.414-2.281,11.889-6.85,16.425L42.625,42.7z"/>
		</g>
	</g>
	<g>
		<polygon fill-rule="evenodd" clip-rule="evenodd" fill="#FFFFFF" points="22.15,38.65 22.15,13.85 34.55,26.25 		"/>
	</g>
</g>
</svg>
