<?xml version="1.0" encoding="utf-8"?>
<!-- Generator: Adobe Illustrator 16.0.0, SVG Export Plug-In . SVG Version: 6.00 Build 0)  -->
<!DOCTYPE svg PUBLIC "-//W3C//DTD SVG 1.1//EN" "http://www.w3.org/Graphics/SVG/1.1/DTD/svg11.dtd">
<svg version="1.1" id="Layer_1" xmlns="http://www.w3.org/2000/svg" xmlns:xlink="http://www.w3.org/1999/xlink" x="0px" y="0px"
	 width="40px" height="38px" viewBox="0 0 40 38" enable-background="new 0 0 40 38" xml:space="preserve">
<g>
	<linearGradient id="SVGID_1_" gradientUnits="userSpaceOnUse" x1="5.6357" y1="33.1514" x2="26.7829" y2="-0.2505">
		<stop  offset="0" style="stop-color:#AE0A11"/>
		<stop  offset="1" style="stop-color:#DF1A21"/>
	</linearGradient>
	<path fill-rule="evenodd" clip-rule="evenodd" fill="url(#SVGID_1_)" d="M39.35,0.8c0.794,0.853,0.486,2.094-0.925,3.725
		c-8.083,8.717-15.208,19.017-21.375,30.9c-0.433,0.851-0.816,1.425-1.15,1.726c-0.433,0.366-0.95,0.508-1.55,0.425
		c-0.864-0.167-1.547-0.842-2.05-2.025c-0.051-0.107-0.101-0.215-0.15-0.325C9.428,29.661,5.728,24.603,1.05,20.05
		c-0.2-0.2-0.383-0.383-0.55-0.55c-0.367-0.5-0.367-1.033,0-1.6l0.025-0.025c0.496-0.551,1.246-0.593,2.25-0.125
		c3.833,1.736,7.258,3.87,10.275,6.4c6.465-8.395,14.031-15.928,22.7-22.601c0.085-0.071,0.168-0.137,0.25-0.2
		c1.342-1.167,2.441-1.367,3.3-0.6C39.321,0.769,39.338,0.786,39.35,0.8z"/>
</g>
</svg>
