<?xml version="1.0" encoding="utf-8"?>
<!-- Generator: Adobe Illustrator 16.0.0, SVG Export Plug-In . SVG Version: 6.00 Build 0)  -->
<!DOCTYPE svg PUBLIC "-//W3C//DTD SVG 1.1//EN" "http://www.w3.org/Graphics/SVG/1.1/DTD/svg11.dtd">
<svg version="1.1" id="Layer_1" xmlns="http://www.w3.org/2000/svg" xmlns:xlink="http://www.w3.org/1999/xlink" x="0px" y="0px"
	 width="37px" height="37px" viewBox="0 0 37 37" enable-background="new 0 0 37 37" xml:space="preserve">
<g>
	<g>
		<path fill-rule="evenodd" clip-rule="evenodd" fill="#FFFFFF" d="M31.3,5.4c3.601,3.567,5.4,7.883,5.4,12.95s-1.8,9.383-5.4,12.95
			c-3.566,3.601-7.883,5.4-12.95,5.4c-5.066,0-9.383-1.8-12.95-5.4C1.8,27.733,0,23.417,0,18.35S1.8,8.967,5.4,5.4
			C8.967,1.8,13.283,0,18.35,0C23.417,0,27.733,1.8,31.3,5.4z"/>
	</g>
	<g>
		<path fill-rule="evenodd" clip-rule="evenodd" fill="#987D8C" d="M16.143,6.186c2.715,0.003,5.034,0.969,6.954,2.897
			c1.928,1.92,2.895,4.238,2.897,6.954c-0.003,2.715-0.97,5.034-2.897,6.955c-1.92,1.927-4.238,2.894-6.954,2.897
			c-2.715-0.004-5.034-0.971-6.954-2.897c-1.928-1.921-2.894-4.239-2.897-6.955c0.003-2.715,0.969-5.033,2.897-6.954
			C11.109,7.155,13.428,6.189,16.143,6.186z M20.885,11.295c-1.312-1.303-2.892-1.953-4.742-1.949
			c-1.85-0.004-3.431,0.646-4.741,1.949c-1.303,1.311-1.953,2.891-1.949,4.741c-0.004,1.85,0.646,3.43,1.949,4.742
			c1.311,1.304,2.891,1.952,4.741,1.949c1.85,0.003,3.43-0.646,4.742-1.949c1.302-1.312,1.952-2.892,1.948-4.742
			C22.837,14.187,22.187,12.606,20.885,11.295z"/>
		<path fill-rule="evenodd" clip-rule="evenodd" fill="#987D8C" d="M23,23.15c0.4-0.367,0.833-0.551,1.3-0.551
			c0.5,0,0.934,0.184,1.3,0.551l4.2,4.3c0.4,0.366,0.601,0.783,0.601,1.25S30.2,29.6,29.8,30c-0.366,0.366-0.783,0.55-1.25,0.55
			c-0.5,0-0.934-0.184-1.3-0.55L23,25.75c-0.333-0.366-0.5-0.8-0.5-1.3S22.667,23.517,23,23.15z"/>
	</g>
</g>
</svg>
