<?xml version="1.0" encoding="utf-8"?>
<!-- Generator: Adobe Illustrator 16.0.0, SVG Export Plug-In . SVG Version: 6.00 Build 0)  -->
<!DOCTYPE svg PUBLIC "-//W3C//DTD SVG 1.1//EN" "http://www.w3.org/Graphics/SVG/1.1/DTD/svg11.dtd">
<svg version="1.1" id="Layer_1" xmlns="http://www.w3.org/2000/svg" xmlns:xlink="http://www.w3.org/1999/xlink" x="0px" y="0px"
	 width="29px" height="29px" viewBox="0 0 29 29" enable-background="new 0 0 29 29" xml:space="preserve">
<g>
	<g>
		<path fill-rule="evenodd" clip-rule="evenodd" fill="#EBEBEB" d="M0.1,14.5c0-3.967,1.4-7.367,4.2-10.2c2.8-2.8,6.2-4.2,10.2-4.2
			s7.384,1.4,10.15,4.2c2.833,2.833,4.25,6.233,4.25,10.2c0,4-1.417,7.4-4.25,10.2c-2.767,2.8-6.15,4.2-10.15,4.2s-7.4-1.4-10.2-4.2
			C1.5,21.9,0.1,18.5,0.1,14.5z"/>
	</g>
	<g>
		<path fill-rule="evenodd" clip-rule="evenodd" fill="#6F6F6F" d="M21.15,13.4c0.333,0,0.616,0.117,0.85,0.35
			c0.2,0.233,0.3,0.483,0.3,0.75c0,0.3-0.1,0.55-0.3,0.75c-0.233,0.267-0.517,0.4-0.85,0.4L11.75,16
			c0.933,1.333,1.717,2.434,2.35,3.3c0.7,0.834,0.7,1.483,0,1.95c-0.2,0.066-0.399,0.1-0.6,0.1c-0.4,0-0.75-0.149-1.05-0.449
			L7.15,15.6c-0.033,0-0.05-0.017-0.05-0.05c-0.3-0.3-0.45-0.65-0.45-1.05s0.15-0.75,0.45-1.05l5.35-5.3
			c0.3-0.3,0.65-0.45,1.05-0.45c0.566-0.034,0.934,0.216,1.1,0.75c0.134,0.5-0.017,1.033-0.449,1.6L11.8,13L21.15,13.4z"/>
	</g>
</g>
</svg>
