<svg width="42" height="42" viewBox="0 0 42 42" fill="none" xmlns="http://www.w3.org/2000/svg">
  <path fill-rule="evenodd" clip-rule="evenodd" d="M35.7913 6.11739C39.9 10.2261 41.9543 15.172 41.9543 20.9543C41.9543 26.7367 39.9 31.6671 35.7913 35.7457C31.7127 39.8544 26.7823 41.9087 21 41.9087C15.2177 41.9087 10.2717 39.8544 6.16304 35.7457C2.08448 31.6671 0.0456543 26.7367 0.0456543 20.9543C0.0456543 15.172 2.08448 10.2261 6.16304 6.11739C10.2717 2.03883 15.2177 0 21 0C26.7823 0 31.7127 2.03883 35.7913 6.11739Z" fill="#4D76A4"/>
  <path fill-rule="evenodd" clip-rule="evenodd" d="M7.03049 15.2478L11.1848 15.2021L11.2305 15.2478H11.3218C11.3528 15.2478 11.383 15.2633 11.4131 15.2934C11.4432 15.2934 11.4889 15.3089 11.5501 15.3391C11.5811 15.3391 11.6112 15.3546 11.6414 15.3847C11.6715 15.4149 11.7025 15.4459 11.7327 15.476C11.7628 15.476 11.7938 15.4916 11.824 15.5217L11.8696 15.5673C11.8997 15.5975 11.9308 15.6276 11.9609 15.6586C11.9609 15.6888 11.9764 15.7189 12.0066 15.7499V15.7956L12.0979 15.8869V15.9782L13.5131 18.9456C13.6354 19.0981 13.7414 19.2652 13.8327 19.4478C13.924 19.6002 14.0153 19.7363 14.1066 19.8586C14.1979 20.0111 14.2737 20.1481 14.3348 20.2695C14.4261 20.3909 14.5174 20.5133 14.6087 20.6347C14.6699 20.7562 14.7457 20.863 14.837 20.9543C14.8982 21.0456 14.9584 21.1369 15.0196 21.2282C15.0799 21.3204 15.1411 21.3962 15.2022 21.4565C15.2634 21.5167 15.3237 21.5788 15.3848 21.6391C15.446 21.6993 15.5063 21.7614 15.5674 21.8217C15.6286 21.8518 15.6743 21.8819 15.7044 21.913C15.7647 21.9431 15.8112 21.9732 15.8414 22.0052C15.9025 22.0353 15.9482 22.0655 15.9783 22.0965C16.0395 22.0965 16.0851 22.0965 16.1153 22.0965C16.1463 22.0965 16.1764 22.0965 16.2066 22.0965H16.2522C16.2833 22.0965 16.3134 22.0965 16.3435 22.0965C16.3746 22.0664 16.4047 22.0509 16.4348 22.0509C16.465 22.0207 16.496 22.0052 16.5261 22.0052C16.5563 21.9742 16.5718 21.944 16.5718 21.913C16.6028 21.8829 16.633 21.8527 16.6631 21.8217C16.6631 21.7916 16.6786 21.7614 16.7087 21.7295C16.7398 21.6993 16.7544 21.6692 16.7544 21.6382C16.7845 21.608 16.8001 21.5624 16.8001 21.5012C16.8001 21.4711 16.8156 21.4254 16.8457 21.3652C16.8457 21.335 16.8612 21.2885 16.8914 21.2282V21.0912L16.9827 20.7708V20.4056L17.0283 20.2686V17.8947L16.9827 17.7586V17.3934L16.937 17.2108V17.0739C16.9069 17.0127 16.8914 16.967 16.8914 16.9369C16.8914 16.8757 16.8758 16.8155 16.8457 16.7543C16.8457 16.7242 16.8302 16.6785 16.8001 16.6173C16.8001 16.5562 16.7845 16.5105 16.7544 16.4804C16.7243 16.4502 16.6932 16.4046 16.6631 16.3434C16.6631 16.3124 16.6476 16.2822 16.6174 16.2521C16.5873 16.1909 16.5563 16.1453 16.5261 16.1152C16.496 16.0841 16.465 16.054 16.4348 16.0239C16.4047 16.0239 16.3746 16.0083 16.3435 15.9782C16.2833 15.9481 16.2367 15.9179 16.2066 15.8869C16.1764 15.8559 16.1463 15.8412 16.1153 15.8412C16.0851 15.8111 16.0395 15.7956 15.9783 15.7956C15.9482 15.7655 15.9181 15.7499 15.887 15.7499C15.8569 15.7198 15.8112 15.7043 15.7501 15.7043L15.6587 15.6586H15.4761L15.4305 15.613C15.3702 15.613 15.3392 15.5975 15.3392 15.5673C15.3392 15.5372 15.3547 15.5062 15.3848 15.476C15.3848 15.4459 15.3848 15.4149 15.3848 15.3847C15.415 15.3847 15.446 15.3692 15.4761 15.3391C15.4761 15.3089 15.4917 15.2779 15.5218 15.2478C15.5519 15.2176 15.583 15.1866 15.6131 15.1565C15.6432 15.1263 15.6743 15.0962 15.7044 15.0652C15.7345 15.035 15.7647 15.0195 15.7957 15.0195C15.8267 14.9894 15.8569 14.9583 15.887 14.9282C15.9181 14.8981 15.9628 14.8826 16.024 14.8826C16.1764 14.7912 16.3746 14.7146 16.6174 14.6543C16.7389 14.6242 16.8758 14.6086 17.0283 14.6086C17.1497 14.5785 17.2876 14.563 17.4392 14.563C17.5606 14.563 17.7131 14.5475 17.8957 14.5173C18.0482 14.5173 18.1997 14.5173 18.3522 14.5173H20.1327L20.2696 14.563H20.5892L20.7261 14.6086H20.9087L21 14.6543H21.137L21.3187 14.6999C21.4712 14.7611 21.6081 14.8214 21.7296 14.8826C21.8519 14.9428 21.9423 15.035 22.0035 15.1565C22.0647 15.2478 22.1258 15.3692 22.1861 15.5217C22.1861 15.5829 22.2016 15.6586 22.2317 15.7499C22.2317 15.8111 22.2317 15.8869 22.2317 15.9782C22.2628 16.0695 22.2783 16.1763 22.2783 16.2978C22.2783 16.3891 22.2783 16.4959 22.2783 16.6173L22.1861 20.4521C22.1861 20.5124 22.1861 20.5736 22.1861 20.6347C22.1861 20.6959 22.1861 20.7562 22.1861 20.8173C22.1861 20.9086 22.2016 20.9844 22.2317 21.0456C22.2317 21.1068 22.2317 21.1679 22.2317 21.2282C22.2628 21.2583 22.2783 21.3049 22.2783 21.3652C22.3084 21.4254 22.324 21.4866 22.324 21.5478C22.3541 21.5779 22.3842 21.6236 22.4153 21.6838C22.4463 21.7441 22.4764 21.7906 22.5075 21.8208C22.5677 21.881 22.6289 21.9422 22.6892 22.0034C22.7504 22.0335 22.796 22.049 22.8261 22.049C22.8563 22.0792 22.8864 22.0947 22.9174 22.0947L22.964 22.049H23.0097C23.0398 22.049 23.0854 22.0335 23.1457 22.0034C23.1767 22.0034 23.2069 21.9879 23.2379 21.9568C23.2982 21.9267 23.3594 21.8966 23.4205 21.8655C23.4507 21.8052 23.4963 21.7596 23.5566 21.7286C23.6177 21.6683 23.6789 21.6071 23.7392 21.5469C23.7994 21.4857 23.8615 21.4099 23.9218 21.3186C23.982 21.2574 24.0578 21.1816 24.1501 21.0903C24.2103 20.9981 24.2861 20.8922 24.3783 20.7699C24.4696 20.6484 24.5609 20.5261 24.6522 20.4046C24.7435 20.2832 24.8348 20.1462 24.9261 19.9938C25.0184 19.8413 25.1087 19.6742 25.2001 19.4916C25.3224 19.3391 25.4447 19.1565 25.5653 18.9438C25.5954 18.8525 25.6411 18.7612 25.7022 18.6699C25.7625 18.5786 25.8081 18.4872 25.8383 18.3959L26.0209 18.122L26.2948 17.5742L26.387 17.3021L26.523 17.0739L27.0252 15.8412L27.0718 15.7956V15.7499C27.1019 15.7198 27.132 15.6742 27.1631 15.613C27.1631 15.5829 27.1786 15.5527 27.2087 15.5217L27.2544 15.476C27.2854 15.4459 27.3156 15.4149 27.3466 15.3847C27.3767 15.3847 27.4069 15.3692 27.4379 15.3391L27.4836 15.2934C27.5146 15.2934 27.5447 15.2934 27.5758 15.2934C27.6059 15.2633 27.6361 15.2478 27.6671 15.2478C27.6981 15.2478 27.7283 15.2478 27.7593 15.2478H32.004L32.0963 15.2021C32.1264 15.2021 32.172 15.2021 32.2323 15.2021H32.6432C32.7034 15.2322 32.75 15.2478 32.7801 15.2478C32.8404 15.2478 32.886 15.2478 32.9162 15.2478C32.9463 15.2779 32.9929 15.2934 33.0531 15.2934C33.0833 15.2934 33.1134 15.3089 33.1444 15.3391C33.1746 15.3391 33.2056 15.3546 33.2367 15.3847C33.2677 15.4149 33.2969 15.4459 33.328 15.476C33.3882 15.5062 33.4348 15.5518 33.4649 15.613C33.4951 15.7344 33.4951 15.8869 33.4649 16.0695C33.4348 16.2521 33.3727 16.4658 33.2823 16.7086C33.1901 16.9524 33.054 17.2254 32.8714 17.5304C32.7801 17.6829 32.6733 17.8499 32.5519 18.0326C32.4597 18.2152 32.3391 18.3978 32.1867 18.5804C32.1264 18.7018 32.0497 18.8242 31.9584 18.9456C31.8671 19.0981 31.7603 19.235 31.6388 19.3565C31.5466 19.5089 31.4407 19.6605 31.3184 19.813L30.041 21.4565L29.904 21.6847L29.7214 21.8673L29.5827 22.0499L29.4914 22.2326C29.4311 22.2928 29.3854 22.354 29.3553 22.4142C29.3252 22.4453 29.2941 22.4909 29.2631 22.5512C29.232 22.6115 29.2174 22.658 29.2174 22.6891C29.1873 22.7493 29.1572 22.795 29.1261 22.8251C29.1261 22.8854 29.1106 22.9319 29.0796 22.9621C29.0796 22.9922 29.0796 23.0379 29.0796 23.0981C29.0494 23.1292 29.0339 23.1593 29.0339 23.1903C29.0339 23.2214 29.0339 23.2661 29.0339 23.3264C29.0339 23.3574 29.0339 23.3876 29.0339 23.4186C29.064 23.4487 29.0796 23.4944 29.0796 23.5546C29.0796 23.5857 29.096 23.6158 29.1261 23.6469C29.1261 23.677 29.1417 23.7071 29.1718 23.7382C29.2019 23.7984 29.232 23.845 29.2631 23.8751C29.2941 23.9052 29.3243 23.9354 29.3553 23.9664C29.3854 24.0267 29.4156 24.0732 29.4466 24.1034C29.4767 24.1636 29.5069 24.2093 29.5379 24.2394L29.9944 24.6959L30.177 24.8329L30.5423 25.1981C30.6947 25.3196 30.8308 25.4419 30.9531 25.5624C31.0746 25.6848 31.1814 25.8062 31.2727 25.9276C31.395 26.0189 31.501 26.1258 31.5923 26.2472C31.7146 26.3394 31.805 26.4298 31.8671 26.5211C31.9566 26.6152 32.0479 26.7065 32.1392 26.7978C32.1994 26.8891 32.2752 26.9795 32.3674 27.0717C32.4277 27.1319 32.4889 27.2077 32.5501 27.2999C32.5802 27.3602 32.6258 27.4214 32.6861 27.4826C32.7473 27.5428 32.7929 27.604 32.823 27.6642C32.8532 27.7254 32.8988 27.7711 32.9591 27.8012L33.0513 27.9382L33.097 28.0742L33.2339 28.3481C33.3554 28.5307 33.432 28.6832 33.4622 28.8046C33.4923 28.9571 33.4923 29.0941 33.4622 29.2155C33.432 29.3379 33.3855 29.4282 33.3252 29.4894C33.265 29.5816 33.1883 29.6574 33.097 29.7177C33.0367 29.7177 32.991 29.7332 32.96 29.7642C32.8997 29.7944 32.8541 29.8099 32.824 29.8099C32.7637 29.84 32.7171 29.8556 32.687 29.8556C32.6267 29.8857 32.5811 29.9012 32.551 29.9012H32.4131L32.3218 29.9469L28.1218 29.9934C28.0615 29.9934 28.0159 29.9779 27.9857 29.9469C27.9246 29.9469 27.8789 29.9469 27.8488 29.9469C27.7885 29.9167 27.7429 29.9012 27.7118 29.9012C27.6516 29.8711 27.5904 29.8409 27.5301 29.8099C27.469 29.8099 27.4233 29.7944 27.3932 29.7642C27.3329 29.7332 27.2717 29.7031 27.2106 29.672C27.1503 29.6419 27.0891 29.6118 27.028 29.5807C26.9677 29.5205 26.9065 29.4739 26.8463 29.4438C26.754 29.3835 26.6637 29.3223 26.5714 29.2612C26.4783 29.1717 26.387 29.0959 26.2957 29.0347C26.2354 28.9434 26.1597 28.8676 26.0674 28.8065C25.9761 28.7152 25.9004 28.6248 25.8392 28.5326C25.7479 28.4412 25.6566 28.3499 25.5653 28.2586C25.505 28.1673 25.4283 28.076 25.337 27.9847L24.8805 27.436C24.7892 27.3757 24.7125 27.2999 24.6522 27.2077C24.5609 27.1164 24.4842 27.0406 24.424 26.9795C24.3637 26.9192 24.287 26.858 24.1957 26.7978C24.1354 26.7366 24.0587 26.6754 23.9674 26.6152C23.846 26.5229 23.709 26.4472 23.5566 26.3869C23.5264 26.3869 23.4963 26.3869 23.4653 26.3869C23.4342 26.3869 23.405 26.3869 23.3731 26.3869C23.3429 26.3869 23.3128 26.3869 23.2817 26.3869C23.2507 26.3869 23.2215 26.3869 23.1904 26.3869C23.0681 26.4472 22.9622 26.5229 22.87 26.6152C22.7787 26.7065 22.6874 26.8133 22.5961 26.9347C22.5659 26.995 22.5358 27.0571 22.5047 27.1173C22.4737 27.1776 22.4609 27.2543 22.4609 27.3456C22.4308 27.4059 22.4007 27.4826 22.3696 27.5739C22.3696 27.6341 22.3541 27.6962 22.324 27.7565C22.324 27.8478 22.3084 27.9245 22.2783 27.9847C22.2783 28.045 22.2783 28.1208 22.2783 28.213L22.2317 28.3956V28.9891C22.2317 29.0192 22.2162 29.0493 22.1861 29.0813V29.1717C22.1861 29.2018 22.1861 29.2319 22.1861 29.263C22.156 29.3242 22.1404 29.3698 22.1404 29.3999C22.1103 29.4301 22.0802 29.4757 22.0491 29.5369C22.0491 29.567 22.0336 29.5972 22.0026 29.6282C21.9724 29.6583 21.9268 29.6885 21.8665 29.7195C21.8364 29.7505 21.8063 29.7661 21.7743 29.7661C21.7442 29.7962 21.6985 29.8263 21.6383 29.8574C21.6081 29.8574 21.578 29.8729 21.546 29.903H21.4109C21.3808 29.903 21.3507 29.9186 21.3187 29.9487H19.4479C19.3876 29.9487 19.3264 29.9487 19.2653 29.9487H19.037C18.9156 29.9186 18.8087 29.903 18.7174 29.903C18.596 29.8729 18.4591 29.8574 18.3066 29.8574C18.1851 29.8272 18.0482 29.7971 17.8957 29.7661C17.7432 29.735 17.5917 29.6894 17.4392 29.6291C17.1041 29.5378 16.7544 29.431 16.3892 29.3096C16.024 29.1571 15.6587 28.9745 15.2935 28.7608C14.8982 28.517 14.5019 28.244 14.1066 27.94C13.6802 27.635 13.2693 27.2853 12.874 26.89C12.7827 26.7676 12.6758 26.6462 12.5544 26.5248C12.4631 26.4033 12.3563 26.281 12.2348 26.1605C12.1435 26.0381 12.0376 25.9167 11.9153 25.7952C11.824 25.6738 11.7327 25.5369 11.6414 25.3844C11.5199 25.2629 11.4131 25.126 11.3218 24.9744C11.2305 24.8521 11.1246 24.7151 11.0022 24.5636C10.9109 24.4111 10.8196 24.275 10.7283 24.1527C10.637 24.0002 10.5457 23.8486 10.4544 23.6962C10.333 23.5437 10.2261 23.3921 10.1348 23.2396C10.0435 23.1173 9.95222 22.9812 9.86092 22.8288C9.76962 22.6772 9.67831 22.5247 9.58701 22.3722C9.4957 22.2207 9.4044 22.0682 9.31309 21.9157L9.08483 21.4592L8.81092 21.0483L6.93918 17.3478L6.80222 17.1195L6.57396 16.4804L6.43701 16.2521V16.2065L6.39136 16.1152C6.39136 16.0841 6.39136 16.054 6.39136 16.0239L6.3457 15.9326C6.3457 15.9024 6.3457 15.8568 6.3457 15.7956C6.3457 15.7655 6.3457 15.7344 6.3457 15.7043C6.3457 15.613 6.37583 15.5372 6.43701 15.476C6.46805 15.4459 6.49818 15.4304 6.52831 15.4304C6.55936 15.3993 6.60409 15.3692 6.66527 15.3391H6.71092L6.75657 15.2934H6.84788L6.89353 15.2478C6.9547 15.2478 7.00036 15.2478 7.03049 15.2478Z" fill="white"/>
</svg>
